<?xml version="1.0" encoding="utf-8"?>
<!-- Generator: Adobe Illustrator 23.0.3, SVG Export Plug-In . SVG Version: 6.00 Build 0)  -->
<svg version="1.1" id="Icons" xmlns="http://www.w3.org/2000/svg" xmlns:xlink="http://www.w3.org/1999/xlink" x="0px" y="0px"
	 viewBox="0 0 32 32" style="enable-background:new 0 0 32 32;" xml:space="preserve">
<path d="M27,8H5c-1.7,0-3,1.3-3,3v10c0,1.7,1.3,3,3,3h6.2c0.8,0,1.6-0.3,2.1-0.9l2-2c0.4-0.4,1-0.4,1.4,0l2,2
	c0.6,0.6,1.3,0.9,2.1,0.9H27c1.7,0,3-1.3,3-3V11C30,9.3,28.7,8,27,8z M9,20c-2.2,0-4-1.8-4-4s1.8-4,4-4s4,1.8,4,4S11.2,20,9,20z
	 M23,20c-2.2,0-4-1.8-4-4s1.8-4,4-4s4,1.8,4,4S25.2,20,23,20z"/>
</svg>
